<?xml version="1.0" standalone="no"?>
<!DOCTYPE svg PUBLIC "-//W3C//DTD SVG 20010904//EN"
 "http://www.w3.org/TR/2001/REC-SVG-20010904/DTD/svg10.dtd">
<svg version="1.0" xmlns="http://www.w3.org/2000/svg"
 width="60.000000pt" height="60.000000pt" viewBox="0 0 60.000000 60.000000"
 preserveAspectRatio="xMidYMid meet">
<metadata>
Created by potrace 1.16, written by Peter Selinger 2001-2019
</metadata>
<g transform="translate(0.000000,60.000000) scale(0.100000,-0.100000)"
fill="#000000" stroke="none">
<path d="M11 576 c-32 -39 36 -151 189 -310 166 -172 293 -266 360 -266 27 0
30 3 30 33 0 20 -14 56 -35 92 -31 51 -34 62 -25 88 15 44 12 132 -6 175 -45
109 -172 170 -289 139 -49 -13 -51 -12 -100 20 -62 40 -106 51 -124 29z"/>
<path d="M62 363 c-15 -37 -6 -137 15 -178 27 -51 78 -100 125 -119 37 -16
132 -21 162 -10 43 17 -6 64 -67 64 -48 0 -109 31 -136 69 -12 16 -21 33 -21
38 0 4 10 -7 21 -25 12 -18 39 -42 60 -52 38 -20 89 -27 89 -12 0 12 -156 162
-168 162 -7 0 -10 -12 -7 -32 5 -33 5 -33 -4 -5 -6 16 -7 35 -4 42 5 16 -33
75 -48 75 -5 0 -13 -8 -17 -17z"/>
</g>
</svg>
